# xmcd
#
# Track frame offsets:
#	150
#	14964
#	28081
#	42432
#	53938
#	66081
#	80780
#	94456
#	108181
#	121262
#	135594
#	150132
#	164897
#	177103
#	189315
#	201843
#	225745
#
# Disc length: 3683 seconds
#
# Revision: 0
# Processed by: cddbd v1.5.2PL0 Copyright (c) Steve Scherf et al.
# Submitted via: EasyCDDAExtractor 16.0.6.1
#
DISCID=ec0e6111
DTITLE=Συλλογικός δίσκος - Τα τραγούδια της ελευθερίας
DYEAR=1999
DGENRE=Παραδοσιακή
TTITLE0=Πασχάλης Σ.-Λήτου Πολυξένη - Δέλβινο και Τσαμουριά [συρτός στα δύο, ηχ
TTITLE0=ογρ. 1946]
TTITLE1=Διαμαντίδης Αντώνης ή Νταλγκάς - Τζαβέλαινα [ηχογρ. 1928]
TTITLE2=Κοντόπουλος Χρήστος - Ο Κατσαντώνης στ' Άγραφα [ηχογρ. 1948]
TTITLE3=Καλλίνικος Δημήτρης ή Αραπάκης - Διψά ο Αντώνης για νερό [ηχογρ. 1930]
TTITLE4=Καλλίνικος Δημήτρης ή Αραπάκης - Του Κίτσου η μάνα [ηχογρ. 1930]
TTITLE5=Αμπατζή Ρίτα - Η Σαμαρίνα [ηχογρ. 1935]
TTITLE6=Παπασιδέρης Γιώργος - Ο γέρο Νοταράς [ηχογρ. 1935, κλ. Απόστολος Σταμέ
TTITLE6=λος]
TTITLE7=Χαλκιάς Φώτης - Εσείς βουνά των Γρεβενών [ηχογρ. 1947]
TTITLE8=Διαμαντίδης Αντώνης ή Νταλγκάς - Ο θάνατος του Γκούρα [ηχογρ. 1930]
TTITLE9=Κοντόπουλος Χρήστος - Κολοκοτρώνης φώναξε [ηχογρ. 1948]
TTITLE10=Βλαχόπουλος Δημήτρης - Γρίβα μ' σε θέλει ο βασιλιάς [ηχογρ. 1948, κλ.
TTITLE10=Χρ. Αδαμόπουλος]
TTITLE11=Παπαγκίκα Μαρίκα - Μπάτε συντρόφοι στο χορό [ηχογρ. 1926, Νέα Υόρκη]
TTITLE12=Άνευ ερμηνευτού - Του αητού ο γυιός [ηχογρ. 1930,ορχ., Σπύρου Καίσαρη
TTITLE12=, φρουρά Αθηνών]
TTITLE13=Βενιζέλος Ελευθέριος - Ο Διγενής [ηχογρ. 1920, αρχείο Μέλπως Μερλιέ]
TTITLE14=Παπαγκίκα Μαρίκα - Χαίρε Ελλάς [ηχογρ. 1926, Νέα Υόρκη]
TTITLE15=Ρούκουνας Κώστας ή Σαμιωτάκης - Ήλθε ο Κωνσταντίνος μας [ηχογρ. 1936,
TTITLE15=Ιακ. Μοντανάρη]
TTITLE16=Track 17
EXTD=
EXTT0=
EXTT1=
EXTT2=
EXTT3=
EXTT4=
EXTT5=
EXTT6=
EXTT7=
EXTT8=
EXTT9=
EXTT10=
EXTT11=
EXTT12=
EXTT13=
EXTT14=
EXTT15=
EXTT16=
PLAYORDER=
